<mxfile host="app.diagrams.net" modified="2022-04-25T13:00:47.663Z" agent="5.0 (Windows NT 10.0; Win64; x64) AppleWebKit/537.36 (KHTML, like Gecko) Chrome/100.0.4896.127 Safari/537.36" etag="JjaEXkTfyutnQIfpIRSQ" version="17.4.6" type="github">
  <diagram id="4P8l1rxKT1toWHU547On" name="Page-1">
    <mxGraphModel dx="1038" dy="547" grid="1" gridSize="10" guides="1" tooltips="1" connect="1" arrows="1" fold="1" page="1" pageScale="1" pageWidth="900" pageHeight="1600" math="0" shadow="0">
      <root>
        <mxCell id="0" />
        <mxCell id="1" parent="0" />
        <mxCell id="tF7dshQVjHnZUIMmoWcG-20" value="cents" style="text;html=1;align=center;verticalAlign=middle;resizable=0;points=[];autosize=1;strokeColor=none;fillColor=none;" vertex="1" parent="1">
          <mxGeometry x="355" y="380" width="40" height="20" as="geometry" />
        </mxCell>
        <mxCell id="tF7dshQVjHnZUIMmoWcG-21" value="dollars" style="text;html=1;align=center;verticalAlign=middle;resizable=0;points=[];autosize=1;strokeColor=none;fillColor=none;" vertex="1" parent="1">
          <mxGeometry x="480" y="450" width="50" height="20" as="geometry" />
        </mxCell>
        <mxCell id="tF7dshQVjHnZUIMmoWcG-22" value="q0" style="ellipse;whiteSpace=wrap;html=1;aspect=fixed;flipH=0;" vertex="1" parent="1">
          <mxGeometry x="70" y="203" width="30" height="30" as="geometry" />
        </mxCell>
        <mxCell id="tF7dshQVjHnZUIMmoWcG-23" value="q1" style="ellipse;whiteSpace=wrap;html=1;aspect=fixed;flipH=0;" vertex="1" parent="1">
          <mxGeometry x="117" y="207" width="30" height="30" as="geometry" />
        </mxCell>
        <mxCell id="tF7dshQVjHnZUIMmoWcG-24" value="q2" style="ellipse;whiteSpace=wrap;html=1;aspect=fixed;flipH=0;" vertex="1" parent="1">
          <mxGeometry x="164" y="211" width="30" height="30" as="geometry" />
        </mxCell>
        <mxCell id="tF7dshQVjHnZUIMmoWcG-25" value="q3" style="ellipse;whiteSpace=wrap;html=1;aspect=fixed;flipH=0;" vertex="1" parent="1">
          <mxGeometry x="211" y="190" width="30" height="30" as="geometry" />
        </mxCell>
        <mxCell id="tF7dshQVjHnZUIMmoWcG-37" style="edgeStyle=orthogonalEdgeStyle;curved=1;rounded=0;orthogonalLoop=1;jettySize=auto;html=1;entryX=0.5;entryY=0;entryDx=0;entryDy=0;" edge="1" parent="1" source="tF7dshQVjHnZUIMmoWcG-26" target="tF7dshQVjHnZUIMmoWcG-28">
          <mxGeometry relative="1" as="geometry" />
        </mxCell>
        <mxCell id="tF7dshQVjHnZUIMmoWcG-38" style="edgeStyle=orthogonalEdgeStyle;curved=1;rounded=0;orthogonalLoop=1;jettySize=auto;html=1;entryX=0;entryY=0.5;entryDx=0;entryDy=0;" edge="1" parent="1" source="tF7dshQVjHnZUIMmoWcG-26" target="tF7dshQVjHnZUIMmoWcG-27">
          <mxGeometry relative="1" as="geometry" />
        </mxCell>
        <mxCell id="tF7dshQVjHnZUIMmoWcG-26" value="q4" style="ellipse;whiteSpace=wrap;html=1;aspect=fixed;flipH=0;" vertex="1" parent="1">
          <mxGeometry x="259" y="194" width="30" height="30" as="geometry" />
        </mxCell>
        <mxCell id="tF7dshQVjHnZUIMmoWcG-39" style="edgeStyle=orthogonalEdgeStyle;curved=1;rounded=0;orthogonalLoop=1;jettySize=auto;html=1;entryX=0;entryY=0.5;entryDx=0;entryDy=0;" edge="1" parent="1" source="tF7dshQVjHnZUIMmoWcG-27" target="tF7dshQVjHnZUIMmoWcG-28">
          <mxGeometry relative="1" as="geometry" />
        </mxCell>
        <mxCell id="tF7dshQVjHnZUIMmoWcG-27" value="q5" style="ellipse;whiteSpace=wrap;html=1;aspect=fixed;flipH=0;" vertex="1" parent="1">
          <mxGeometry x="404" y="237" width="30" height="30" as="geometry" />
        </mxCell>
        <mxCell id="tF7dshQVjHnZUIMmoWcG-33" style="edgeStyle=orthogonalEdgeStyle;rounded=0;orthogonalLoop=1;jettySize=auto;html=1;curved=1;" edge="1" parent="1" source="tF7dshQVjHnZUIMmoWcG-28" target="tF7dshQVjHnZUIMmoWcG-29">
          <mxGeometry relative="1" as="geometry">
            <Array as="points">
              <mxPoint x="530" y="210" />
              <mxPoint x="650" y="210" />
              <mxPoint x="650" y="235" />
            </Array>
          </mxGeometry>
        </mxCell>
        <mxCell id="tF7dshQVjHnZUIMmoWcG-34" value="cents" style="edgeLabel;html=1;align=center;verticalAlign=middle;resizable=0;points=[];" vertex="1" connectable="0" parent="tF7dshQVjHnZUIMmoWcG-33">
          <mxGeometry x="-0.1733" relative="1" as="geometry">
            <mxPoint x="5" y="-10" as="offset" />
          </mxGeometry>
        </mxCell>
        <mxCell id="tF7dshQVjHnZUIMmoWcG-28" value="q6" style="ellipse;whiteSpace=wrap;html=1;aspect=fixed;flipH=0;" vertex="1" parent="1">
          <mxGeometry x="500" y="211" width="30" height="30" as="geometry" />
        </mxCell>
        <mxCell id="tF7dshQVjHnZUIMmoWcG-29" value="q7" style="ellipse;whiteSpace=wrap;html=1;aspect=fixed;flipH=0;" vertex="1" parent="1">
          <mxGeometry x="670" y="220" width="30" height="30" as="geometry" />
        </mxCell>
        <mxCell id="tF7dshQVjHnZUIMmoWcG-41" value="One&lt;br&gt;two&lt;br&gt;three&lt;br&gt;four&lt;br&gt;five" style="text;html=1;align=center;verticalAlign=middle;resizable=0;points=[];autosize=1;strokeColor=none;fillColor=none;flipV=1;" vertex="1" parent="1">
          <mxGeometry x="90" y="570" width="40" height="80" as="geometry" />
        </mxCell>
        <mxCell id="tF7dshQVjHnZUIMmoWcG-42" value="six&lt;br&gt;seven&lt;br&gt;eight&lt;br&gt;nine&lt;br&gt;ten" style="text;html=1;align=center;verticalAlign=middle;resizable=0;points=[];autosize=1;strokeColor=none;fillColor=none;" vertex="1" parent="1">
          <mxGeometry x="134" y="570" width="50" height="80" as="geometry" />
        </mxCell>
        <mxCell id="tF7dshQVjHnZUIMmoWcG-43" value="eleven&lt;br&gt;twelve&lt;br&gt;thirteen&lt;br&gt;fourteen" style="text;html=1;align=center;verticalAlign=middle;resizable=0;points=[];autosize=1;strokeColor=none;fillColor=none;" vertex="1" parent="1">
          <mxGeometry x="178" y="580" width="60" height="60" as="geometry" />
        </mxCell>
        <mxCell id="tF7dshQVjHnZUIMmoWcG-44" value="fifteen&lt;br&gt;sixteen&lt;br&gt;seventeen&lt;br&gt;eighteen&lt;br&gt;nineteen" style="text;html=1;align=center;verticalAlign=middle;resizable=0;points=[];autosize=1;strokeColor=none;fillColor=none;" vertex="1" parent="1">
          <mxGeometry x="222" y="570" width="70" height="80" as="geometry" />
        </mxCell>
        <mxCell id="tF7dshQVjHnZUIMmoWcG-45" value="twenty&lt;br&gt;thirty&lt;br&gt;forty&lt;br&gt;fifty" style="text;html=1;align=center;verticalAlign=middle;resizable=0;points=[];autosize=1;strokeColor=none;fillColor=none;" vertex="1" parent="1">
          <mxGeometry x="330" y="580" width="50" height="60" as="geometry" />
        </mxCell>
        <mxCell id="tF7dshQVjHnZUIMmoWcG-46" value="sixty&lt;br&gt;seventy&lt;br&gt;eighty&lt;br&gt;ninety" style="text;html=1;align=center;verticalAlign=middle;resizable=0;points=[];autosize=1;strokeColor=none;fillColor=none;" vertex="1" parent="1">
          <mxGeometry x="276" y="580" width="60" height="60" as="geometry" />
        </mxCell>
        <mxCell id="tF7dshQVjHnZUIMmoWcG-47" value="" style="group" vertex="1" connectable="0" parent="1">
          <mxGeometry x="280" y="110" width="290" height="80" as="geometry" />
        </mxCell>
        <mxCell id="tF7dshQVjHnZUIMmoWcG-1" value="One&lt;br&gt;two&lt;br&gt;three&lt;br&gt;four&lt;br&gt;five" style="text;html=1;align=center;verticalAlign=middle;resizable=0;points=[];autosize=1;strokeColor=none;fillColor=none;flipV=1;" vertex="1" parent="tF7dshQVjHnZUIMmoWcG-47">
          <mxGeometry width="40" height="80" as="geometry" />
        </mxCell>
        <mxCell id="tF7dshQVjHnZUIMmoWcG-15" value="six&lt;br&gt;seven&lt;br&gt;eight&lt;br&gt;nine&lt;br&gt;ten" style="text;html=1;align=center;verticalAlign=middle;resizable=0;points=[];autosize=1;strokeColor=none;fillColor=none;" vertex="1" parent="tF7dshQVjHnZUIMmoWcG-47">
          <mxGeometry x="44" width="50" height="80" as="geometry" />
        </mxCell>
        <mxCell id="tF7dshQVjHnZUIMmoWcG-16" value="eleven&lt;br&gt;twelve&lt;br&gt;thirteen&lt;br&gt;fourteen" style="text;html=1;align=center;verticalAlign=middle;resizable=0;points=[];autosize=1;strokeColor=none;fillColor=none;" vertex="1" parent="tF7dshQVjHnZUIMmoWcG-47">
          <mxGeometry x="88" y="10" width="60" height="60" as="geometry" />
        </mxCell>
        <mxCell id="tF7dshQVjHnZUIMmoWcG-17" value="fifteen&lt;br&gt;sixteen&lt;br&gt;seventeen&lt;br&gt;eighteen&lt;br&gt;nineteen" style="text;html=1;align=center;verticalAlign=middle;resizable=0;points=[];autosize=1;strokeColor=none;fillColor=none;" vertex="1" parent="tF7dshQVjHnZUIMmoWcG-47">
          <mxGeometry x="132" width="70" height="80" as="geometry" />
        </mxCell>
        <mxCell id="tF7dshQVjHnZUIMmoWcG-18" value="twenty&lt;br&gt;thirty&lt;br&gt;forty&lt;br&gt;fifty" style="text;html=1;align=center;verticalAlign=middle;resizable=0;points=[];autosize=1;strokeColor=none;fillColor=none;" vertex="1" parent="tF7dshQVjHnZUIMmoWcG-47">
          <mxGeometry x="240" y="10" width="50" height="60" as="geometry" />
        </mxCell>
        <mxCell id="tF7dshQVjHnZUIMmoWcG-19" value="sixty&lt;br&gt;seventy&lt;br&gt;eighty&lt;br&gt;ninety" style="text;html=1;align=center;verticalAlign=middle;resizable=0;points=[];autosize=1;strokeColor=none;fillColor=none;" vertex="1" parent="tF7dshQVjHnZUIMmoWcG-47">
          <mxGeometry x="186" y="10" width="60" height="60" as="geometry" />
        </mxCell>
      </root>
    </mxGraphModel>
  </diagram>
</mxfile>
